#!OML:ASF H:\GeneralSubjects\Female5\Project 1\Capture day 1\Session 1\Female5.ASF
:FULLY-SPECIFIED
:DEGREES
634
root 4.87365 15.8415 -1.80495 357.236 72.4943 711.42
lowerback 6.30494 2.19884 1.76439
upperback -13.1091 3.89353 0.59586
thorax -18.4187 1.78928 -1.20695
lowerneck -11.2232 -2.12866 0.186547
upperneck 34.218 -0.0834175 -5.92882
head 13.3701 -0.379706 -2.29433
rclavicle 5.56349e-014 3.8763e-014
rhumerus -58.8268 30.8445 -103.405
rradius 39.6477
rwrist -10.4272
rhand -16.5597 -17.6834
rfingers 7.12502
rthumb 9.66018 -47.4419
lclavicle 5.56349e-014 3.8763e-014
lhumerus -64.0189 17.772 55.598
lradius 22.0238
lwrist -27.9025
lhand -14.2503 34.5235
lfingers 7.12502
lthumb 11.8878 64.166
rfemur 10.2639 -2.77785 28.9592
rtibia 31.9214
rfoot -2.50431 -20.509
rtoes 4.28572
lfemur -15.3663 -19.349 -25.7552
ltibia 12.49
lfoot -13.3552 14.9112
ltoes -65.0922
635
root 5.1241 15.8637 -1.788 360.678 72.6352 715.302
lowerback 6.55295 2.05986 0.798656
upperback -12.9844 3.5175 0.470845
thorax -18.4793 1.72961 -0.741918
lowerneck -11.4251 -1.94055 0.141034
upperneck 34.5137 0.0386814 -5.3749
head 13.5504 -0.259064 -2.05941
rclavicle 5.63228e-014 3.03022e-014
rhumerus -59.3269 30.7464 -102.796
rradius 39.7575
rwrist -11.4914
rhand -15.8926 -17.4401
rfingers 7.12502
rthumb 10.3038 -47.1677
lclavicle 5.63228e-014 3.03022e-014
lhumerus -63.4148 16.6383 57.7156
lradius 23.2319
lwrist -24.5947
lhand -15.1825 33.9292
lfingers 7.12502
lthumb 10.9888 63.6216
rfemur 8.27922 -4.68811 26.3047
rtibia 36.1605
rfoot -1.6487 -21.387
rtoes 0.877989
lfemur -13.1509 -19.5798 -27.9762
ltibia 11.3536
lfoot -13.691 14.6931
ltoes -65.2778
636
root 5.36689 15.8677 -1.76563 364.082 72.6719 719.208
lowerback 6.95875 1.9621 -0.108929
upperback -12.8551 3.1862 0.240825
thorax -18.6251 1.669 -0.443674
lowerneck -11.4358 -1.82435 0.375447
upperneck 34.5991 0.0231148 -5.01717
head 13.5863 -0.188001 -1.96246
rclavicle -4.40557e-014 -3.25758e-014
rhumerus -59.4866 30.2127 -101.84
rradius 39.7141
rwrist -12.1122
rhand -15.5515 -17.52
rfingers 7.12502
rthumb 10.6329 -47.231
lclavicle -4.40557e-014 -3.25758e-014
lhumerus -62.4794 14.9534 60.0628
lradius 24.4546
lwrist -20.5627
lhand -16.9941 33.2942
lfingers 7.12502
lthumb 9.24102 63.0717
rfemur 6.18571 -6.44231 23.8427
rtibia 40.1608
rfoot -4.51354 -23.4609
rtoes 0.139832
lfemur -10.9656 -19.6605 -30.1698
ltibia 10.245
lfoot -13.9674 14.5387
ltoes -65.3221
637
root 5.59531 15.8512 -1.73375 367.19 72.5826 722.716
lowerback 7.45821 1.8827 -0.938934
upperback -12.7562 2.88579 0.00225299
thorax -18.8685 1.6118 -0.207715
lowerneck -11.5362 -1.70944 0.710092
upperneck 34.6406 0.0590324 -4.90504
head 13.6246 -0.116544 -1.97445
rclavicle -1.38155e-014 -4.96962e-017
rhumerus -59.4906 29.4479 -100.745
rradius 39.4989
rwrist -12.4701
rhand -15.7289 -17.7739
rfingers 7.12502
rthumb 10.4617 -47.4936
lclavicle -1.38155e-014 -4.96962e-017
lhumerus -61.6465 13.4106 61.9169
lradius 25.8672
lwrist -17.1606
lhand -18.8216 33.1249
lfingers 7.12502
lthumb 7.47738 62.9727
rfemur 3.86017 -7.81406 21.8469
rtibia 43.7239
rfoot -7.89512 -25.1312
rtoes 5.54957
lfemur -9.13879 -19.4586 -32.0589
ltibia 9.34509
lfoot -14.1192 14.2985
ltoes -65.3407
638
root 5.80787 15.8164 -1.6961 369.95 72.4164 725.69
lowerback 7.89059 1.80526 -1.66865
upperback -12.6693 2.60787 -0.178704
thorax -19.0779 1.56049 0.0393625
lowerneck -11.7592 -1.5107 0.928005
upperneck 34.5985 0.260631 -4.84553
head 13.6622 0.000983545 -1.96242
rclavicle 5.34234e-014 1.8487e-014
rhumerus -59.1773 28.4627 -99.2836
rradius 39.0943
rwrist -12.6147
rhand -16.6561 -17.8055
rfingers 7.12502
rthumb 9.56718 -47.5683
lclavicle 5.34234e-014 1.8487e-014
lhumerus -60.8338 12.223 63.2396
lradius 27.3812
lwrist -14.8636
lhand -19.8758 34.0621
lfingers 7.12502
lthumb 6.45972 63.9436
rfemur 1.16625 -8.81074 20.3101
rtibia 46.6943
rfoot -10.2773 -26.8675
rtoes 7.53196
lfemur -7.80705 -18.8949 -33.5914
ltibia 8.77111
lfoot -14.2854 13.5654
ltoes -65.1819
639
root 6.01388 15.7674 -1.65592 372.119 72.2101 728.046
lowerback 8.33673 1.73968 -2.19842
upperback -12.5765 2.38018 -0.31797
thorax -19.2793 1.50945 0.213835
lowerneck -11.8525 -1.27822 1.18099
upperneck 34.3651 0.545437 -4.94701
head 13.5907 0.137298 -2.00256
rclavicle 1.08835e-014 -3.47873e-015
rhumerus -58.5926 27.1983 -97.555
rradius 38.3436
rwrist -12.5353
rhand -17.5464 -18.0225
rfingers 7.12502
rthumb 8.70806 -47.8229
lclavicle 1.08835e-014 -3.47873e-015
lhumerus -59.8561 11.1107 64.3065
lradius 28.614
lwrist -13.0345
lhand -21.3892 34.8569
lfingers 7.12502
lthumb 4.99853 64.778
rfemur -1.68921 -9.66104 19.1096
rtibia 49.0479
rfoot -14.3975 -26.4493
rtoes 6.51585
lfemur -6.55441 -18.2731 -34.8962
ltibia 8.29307
lfoot -14.6239 12.6791
ltoes -64.7317
640
root 6.21569 15.7119 -1.61409 374.167 71.8791 730.27
lowerback 8.76684 1.69464 -2.76267
upperback -12.4312 2.16808 -0.443686
thorax -19.401 1.47108 0.424649
lowerneck -12.2131 -1.05898 1.5268
upperneck 34.1594 0.832863 -5.21415
head 13.5932 0.258025 -2.12914
rclavicle -1.16786e-014 -1.45113e-014
rhumerus -57.865 26.0568 -95.9218
rradius 37.3449
rwrist -12.6785
rhand -18.5042 -19.3224
rfingers 7.12502
rthumb 7.78367 -49.1591
lclavicle -1.16786e-014 -1.45113e-014
lhumerus -58.6365 10.3094 65.0214
lradius 29.4249
lwrist -11.8827
lhand -23.1288 35.3704
lfingers 7.12502
lthumb 3.31872 65.3243
rfemur -4.72932 -10.3339 18.0518
rtibia 50.8404
rfoot -17.7201 -25.6014
rtoes 6.30599
lfemur -5.28395 -17.6773 -36.1629
ltibia 7.72579
lfoot -14.9694 12.0249
ltoes -64.2033
641
root 6.40916 15.6626 -1.57473 376.439 71.4327 732.625
lowerback 9.18999 1.68003 -3.39392
upperback -12.2759 1.97336 -0.616739
thorax -19.5053 1.44526 0.615488
lowerneck -12.7961 -0.910485 1.85651
upperneck 33.921 0.999028 -5.48232
head 13.6269 0.3149 -2.27312
rclavicle 5.07398e-014 1.15295e-014
rhumerus -57.0295 24.888 -94.3121
rradius 36.2549
rwrist -13.1537
rhand -20.5067 -20.3121
rfingers 7.12502
rthumb 5.85065 -50.2113
lclavicle 5.07398e-014 1.15295e-014
lhumerus -57.2314 9.65142 65.5476
lradius 29.977
lwrist -11.3529
lhand -24.6987 35.9334
lfingers 7.12502
lthumb 1.80258 65.9055
rfemur -8.02941 -10.7496 17.0543
rtibia 51.9797
rfoot -20.5196 -24.157
rtoes 6.93321
lfemur -4.2182 -16.8504 -37.4198
ltibia 7.18831
lfoot -15.1822 11.3507
ltoes -63.9595
642
root 6.59365 15.6228 -1.53245 377.816 70.9555 734.013
lowerback 9.66479 1.65639 -3.84923
upperback -12.103 1.81099 -0.656228
thorax -19.6185 1.423 0.857135
lowerneck -13.3747 -0.692269 2.2407
upperneck 33.5169 1.27462 -5.87033
head 13.5959 0.407017 -2.45341
rclavicle -2.87244e-014 3.97569e-015
rhumerus -55.9267 23.5826 -92.4594
rradius 34.895
rwrist -13.3642
rhand -22.5821 -20.1722
rfingers 7.12502
rthumb 3.84669 -50.1172
lclavicle -2.87244e-014 3.97569e-015
lhumerus -55.6379 9.4967 65.7942
lradius 30.0905
lwrist -11.3662
lhand -27.6291 34.9537
lfingers 7.12502
lthumb -1.02768 64.9309
rfemur -11.4518 -10.8052 16.619
rtibia 52.5087
rfoot -23.0653 -22.8374
rtoes 6.57771
lfemur -3.31478 -15.9096 -38.2495
ltibia 6.77965
lfoot -15.503 10.7056
ltoes -63.8869
643
root 6.77267 15.5912 -1.4866 377.923 70.5276 734.129
lowerback 10.199 1.60985 -4.00404
upperback -11.862 1.6938 -0.507233
thorax -19.6736 1.39559 1.14398
lowerneck -14.0451 -0.335669 2.75955
upperneck 33.0354 1.78219 -6.48495
head 13.5732 0.584649 -2.71034
rclavicle 8.06072e-014 2.50469e-014
rhumerus -54.465 22.1783 -90.3185
rradius 33.2865
rwrist -13.026
rhand -23.6989 -20.6694
rfingers 7.12502
rthumb 2.7682 -50.6312
lclavicle 8.06072e-014 2.50469e-014
lhumerus -53.8682 9.88695 65.8222
lradius 29.7916
lwrist -11.7836
lhand -30.8068 33.123
lfingers 7.12502
lthumb -4.09656 63.0633
rfemur -14.8831 -10.47 16.8872
rtibia 52.6529
rfoot -24.8351 -22.4144
rtoes 5.08426
lfemur -2.34792 -15.149 -38.5743
ltibia 6.32241
lfoot -16.2475 9.94211
ltoes -63.3116
644
root 6.94784 15.5681 -1.44326 378.126 70.097 734.327
lowerback 10.744 1.57582 -4.11913
upperback -11.5923 1.59557 -0.385198
thorax -19.6943 1.36697 1.37447
lowerneck -14.5267 0.012252 2.74078
upperneck 32.167 2.13155 -6.35964
head 13.3258 0.719427 -2.58513
rclavicle 5.61567e-014 1.07344e-014
rhumerus -52.9362 20.7031 -88.2733
rradius 31.5978
rwrist -13.2037
rhand -25.0694 -21.4725
rfingers 7.12502
rthumb 1.44456 -51.4474
lclavicle 5.61567e-014 1.07344e-014
lhumerus -52.0178 10.355 65.8564
lradius 29.243
lwrist -12.3989
lhand -30.9613 34.2625
lfingers 7.12502
lthumb -4.24577 64.2
rfemur -18.332 -9.96141 17.1733
rtibia 52.4175
rfoot -26.2074 -22.3784
rtoes 3.39908
lfemur -1.45022 -14.3959 -38.8993
ltibia 5.90113
lfoot -16.9752 9.06646
ltoes -62.9128
